<?xml version="1.0" encoding="utf-8"?>
<!-- Generator: Adobe Illustrator 18.0.0, SVG Export Plug-In . SVG Version: 6.00 Build 0)  -->
<!DOCTYPE svg PUBLIC "-//W3C//DTD SVG 1.1//EN" "http://www.w3.org/Graphics/SVG/1.1/DTD/svg11.dtd">
<svg version="1.1" xmlns="http://www.w3.org/2000/svg" xmlns:xlink="http://www.w3.org/1999/xlink" x="0px" y="0px"
	 viewBox="0 0 256 256" enable-background="new 0 0 256 256" xml:space="preserve">
<g id="folha_xA0_Imagem_1_">
	<g>
		<path fill="none" d="M161,87c0.3,1.3,1,2.7,1,4c0.1,40.7,0,81.3,0,122c-20,0-40,0-60,0c0-42,0-84,0-126c17.7,0,35.3,0,53,0
			c-3.1,0.8-6.1,1.5-9.2,2.3c-21,5.4-36.3,17-42.3,38.7c-3.3,12,1.3,24.2,11.1,29.8c3.2-12.6,7.7-24.5,16.5-34.4
			c-3.1,12.5-6.8,24.4-9,36.6c-2.9,15.8-2.8,31.8-0.1,47.7c0.6,3.4,1.9,5.1,5.5,4.6c1.9-0.3,3.8,0,6.1,0c-0.4-1.8-0.6-3-0.9-4.1
			c-3.8-13.8-4.9-27.8-4.6-42c0.1-3.2,0.9-5,4.5-5.9c8.8-2.2,14.7-8.1,16.4-17c1.1-5.8,1.2-12,0.5-17.8C147.6,110.7,147.8,97,161,87
			z"/>
		<path d="M161,87c-13.2,10-13.4,23.7-11.6,38.4c0.7,5.8,0.6,12-0.5,17.8c-1.7,8.9-7.5,14.8-16.4,17c-3.6,0.9-4.4,2.7-4.5,5.9
			c-0.3,14.2,0.8,28.3,4.6,42c0.3,1.1,0.5,2.2,0.9,4.1c-2.3,0-4.2-0.2-6.1,0c-3.6,0.5-5-1.2-5.5-4.6c-2.7-15.9-2.8-31.9,0.1-47.7
			c2.2-12.2,5.9-24,9-36.6c-8.7,9.9-13.3,21.8-16.5,34.4c-9.8-5.6-14.4-17.8-11.1-29.8c6-21.7,21.3-33.3,42.3-38.7
			c3-0.8,6.1-1.5,9.2-2.3C157,87,159,87,161,87z"/>
	</g>
</g>
<g id="pingo_xA0_Imagem_1_">
	<g>
		<path fill="none" d="M145.8,84c-9.7,0-19.2,0-28.7,0c0-9.6,0-19.2,0-28.9c9.6,0,19.2,0,28.7,0C145.8,64.7,145.8,74.3,145.8,84z"/>
	</g>
	<circle cx="131.5" cy="69.5" r="14.5"/>
</g>
</svg>
